<?xml version="1.0" encoding="UTF-8"?>
<svg width="140px" height="43px" viewBox="0 0 140 43" version="1.1" xmlns="http://www.w3.org/2000/svg" xmlns:xlink="http://www.w3.org/1999/xlink">
    <!-- Generator: sketchtool 56.3 (101010) - https://sketch.com -->
    <title>63E8130B-4DB7-4DDF-B228-33687A838A45@1.5x</title>
    <desc>Created with sketchtool.</desc>
    <g id="Final-Design" stroke="none" stroke-width="1" fill="none" fill-rule="evenodd">
        <g id="Hero-V1-" transform="translate(-251.000000, -53.000000)" fill-rule="nonzero">
            <g id="Aira_RGB" transform="translate(251.000000, 53.000000)">
                <path d="M72.462963,32.7366255 L72.462963,32.2588477 C71.2596708,33.2320988 69.9502058,33.9576132 68.5345679,34.4707819 C67.11893,34.9839506 65.5971193,35.2493827 63.9868313,35.2493827 C60.2530864,35.2493827 57.0679012,33.9222222 54.4312757,31.2855967 C51.7946502,28.6489712 50.4674897,25.463786 50.4674897,21.7300412 C50.4674897,17.9962963 51.7769547,14.8111111 54.4312757,12.1744856 C57.0679012,9.53786008 60.2530864,8.21069959 63.9868313,8.21069959 C67.6851852,8.21069959 70.8703704,9.53786008 73.5423868,12.1744856 C76.1790123,14.8111111 77.5061728,17.9962963 77.5061728,21.7300412 L77.5061728,32.7366255 C77.5061728,33.426749 77.2584362,34.0106996 76.762963,34.5061728 C76.2674897,35.0016461 75.6835391,35.2493827 74.9934156,35.2493827 C74.2855967,35.2493827 73.6839506,35.0016461 73.1884774,34.5061728 C72.7106996,34.0106996 72.462963,33.426749 72.462963,32.7366255 L72.462963,32.7366255 Z M63.9868313,13.2539095 C62.8012346,13.2539095 61.6864198,13.4839506 60.6600823,13.9263374 C59.6337449,14.3687243 58.7312757,14.9880658 57.9703704,15.7489712 C57.209465,16.5098765 56.6078189,17.4123457 56.1654321,18.4386831 C55.7230453,19.4650206 55.4930041,20.5621399 55.4930041,21.7300412 C55.4930041,22.8979424 55.7053498,23.9773663 56.1654321,25.0213992 C56.6078189,26.0477366 57.209465,26.9502058 57.9703704,27.7111111 C58.7312757,28.4720165 59.6160494,29.091358 60.6600823,29.5337449 C61.6864198,29.9761317 62.8012346,30.2061728 63.9868313,30.2061728 C65.1547325,30.2061728 66.2695473,29.9761317 67.2958848,29.5337449 C68.3222222,29.091358 69.2246914,28.4720165 69.9855967,27.6934156 C70.7465021,26.9148148 71.3481481,26.0300412 71.790535,25.0037037 C72.2329218,23.9773663 72.462963,22.8979424 72.462963,21.7300412 C72.462963,20.5798354 72.2329218,19.482716 71.790535,18.4563786 C71.3481481,17.4300412 70.7465021,16.5452675 69.9855967,15.7666667 C69.2246914,14.9880658 68.3222222,14.3864198 67.2958848,13.9263374 C66.2695473,13.4662551 65.1547325,13.2539095 63.9868313,13.2539095 Z" id="XMLID_11_" fill="#171717"/>
                <path d="M88.1942387,3.39753086 C88.1942387,4.21152263 87.9111111,4.91934156 87.3271605,5.50329218 C86.7432099,6.0872428 86.0530864,6.37037037 85.2213992,6.37037037 C84.4074074,6.37037037 83.6995885,6.0872428 83.1156379,5.50329218 C82.5316872,4.91934156 82.2485597,4.22921811 82.2485597,3.39753086 C82.2485597,2.58353909 82.5316872,1.87572016 83.1156379,1.29176955 C83.6995885,0.70781893 84.3897119,0.424691358 85.2213992,0.424691358 C86.0353909,0.424691358 86.7432099,0.70781893 87.3271605,1.29176955 C87.9111111,1.87572016 88.1942387,2.58353909 88.1942387,3.39753086 L88.1942387,3.39753086 Z M82.7263374,32.71893 L82.7263374,10.7411523 C82.7263374,10.0333333 82.9740741,9.43168724 83.4695473,8.93621399 C83.9650206,8.44074074 84.5489712,8.19300412 85.2390947,8.19300412 C85.9292181,8.19300412 86.5308642,8.44074074 87.008642,8.93621399 C87.5041152,9.43168724 87.7518519,10.0333333 87.7695473,10.7411523 L87.7695473,32.71893 C87.7518519,33.426749 87.5041152,34.0283951 87.008642,34.5238683 C86.5131687,35.0193416 85.9292181,35.2670782 85.2390947,35.2670782 C84.5489712,35.2670782 83.9473251,35.0193416 83.4695473,34.5238683 C82.9740741,34.0106996 82.7263374,33.426749 82.7263374,32.71893 Z" id="XMLID_8_" fill="#171717"/>
                <path d="M97.9090535,10.7057613 L97.9090535,11.1835391 C99.1123457,10.2102881 100.421811,9.48477366 101.855144,8.95390947 C103.270782,8.44074074 104.792593,8.17530864 106.385185,8.17530864 C107.093004,8.17530864 107.853909,8.22839506 108.667901,8.31687243 C109.481893,8.40534979 110.225103,8.58230453 110.915226,8.83004115 C111.60535,9.07777778 112.171605,9.41399177 112.613992,9.8563786 C113.056379,10.28107 113.28642,10.8473251 113.28642,11.5374486 C113.28642,11.891358 113.215638,12.227572 113.074074,12.5283951 C112.93251,12.8292181 112.755556,13.0946502 112.525514,13.3423868 C112.295473,13.572428 112.030041,13.7493827 111.729218,13.8909465 C111.428395,14.0148148 111.092181,14.0855967 110.738272,14.0855967 C110.437449,14.0855967 110.083539,13.9971193 109.676543,13.8201646 C108.667901,13.4131687 107.553086,13.2185185 106.36749,13.2185185 C105.199588,13.2185185 104.084774,13.4308642 103.058436,13.873251 C102.032099,14.3156379 101.12963,14.917284 100.368724,15.6781893 C99.6078189,16.4390947 99.0061728,17.3415638 98.563786,18.3679012 C98.1213992,19.3942387 97.891358,20.491358 97.891358,21.6769547 L97.891358,32.7366255 C97.891358,33.426749 97.6436214,34.0106996 97.1481481,34.5061728 C96.6526749,35.0016461 96.0687243,35.2493827 95.3786008,35.2493827 C94.6707819,35.2493827 94.0691358,35.0016461 93.5736626,34.5061728 C93.0781893,34.0106996 92.8304527,33.426749 92.8304527,32.7366255 L92.8304527,10.7057613 C92.8304527,10.0156379 93.0781893,9.41399177 93.5736626,8.93621399 C94.0691358,8.44074074 94.6707819,8.19300412 95.3786008,8.19300412 C96.0687243,8.19300412 96.6703704,8.44074074 97.1481481,8.93621399 C97.6613169,9.43168724 97.9090535,10.0156379 97.9090535,10.7057613" id="XMLID_7_" fill="#171717"/>
                <path d="M134.927984,32.7366255 L134.927984,32.2588477 C133.724691,33.2320988 132.415226,33.9576132 130.999588,34.4707819 C129.583951,34.9839506 128.06214,35.2493827 126.451852,35.2493827 C122.718107,35.2493827 119.532922,33.9222222 116.896296,31.2855967 C114.259671,28.6489712 112.93251,25.463786 112.93251,21.7300412 C112.93251,17.9962963 114.259671,14.8111111 116.896296,12.1744856 C119.532922,9.53786008 122.718107,8.21069959 126.451852,8.21069959 C130.150206,8.21069959 133.335391,9.53786008 136.007407,12.1744856 C138.644033,14.8111111 139.971193,17.9962963 139.971193,21.7300412 L139.971193,32.7366255 C139.971193,33.426749 139.723457,34.0106996 139.227984,34.5061728 C138.73251,35.0016461 138.14856,35.2493827 137.458436,35.2493827 C136.750617,35.2493827 136.148971,35.0016461 135.653498,34.5061728 C135.17572,34.0106996 134.927984,33.426749 134.927984,32.7366255 L134.927984,32.7366255 Z M126.451852,13.2539095 C125.266255,13.2539095 124.15144,13.4839506 123.125103,13.9263374 C122.098765,14.3687243 121.196296,14.9880658 120.453086,15.7489712 C119.692181,16.5098765 119.090535,17.4123457 118.648148,18.4386831 C118.205761,19.4650206 117.993416,20.5621399 117.993416,21.7300412 C117.993416,22.8979424 118.205761,23.9773663 118.648148,25.0213992 C119.090535,26.0477366 119.692181,26.9502058 120.453086,27.7111111 C121.213992,28.4720165 122.098765,29.091358 123.125103,29.5337449 C124.15144,29.9761317 125.266255,30.2061728 126.451852,30.2061728 C127.619753,30.2061728 128.734568,29.9761317 129.760905,29.5337449 C130.787243,29.091358 131.689712,28.4720165 132.450617,27.6934156 C133.211523,26.9148148 133.813169,26.0300412 134.255556,25.0037037 C134.697942,23.9773663 134.910288,22.8979424 134.910288,21.7300412 C134.910288,20.5798354 134.697942,19.482716 134.255556,18.4563786 C133.813169,17.4300412 133.211523,16.5452675 132.450617,15.7666667 C131.689712,14.9880658 130.787243,14.3864198 129.760905,13.9263374 C128.734568,13.4662551 127.619753,13.2539095 126.451852,13.2539095 Z" id="XMLID_4_" fill="#171717"/>
                <g id="Group">
                    <circle id="XMLID_14_" fill="#21BECE" cx="21.5530864" cy="21.5530864" r="21.4292181"/>
                    <path d="M27.3395062,29.5868313 L27.3395062,29.2329218 C26.437037,29.9584362 25.463786,30.5069959 24.4020576,30.8786008 C23.3403292,31.2679012 22.2255144,31.4625514 21.0222222,31.4625514 C18.2440329,31.4625514 15.8728395,30.4716049 13.908642,28.5074074 C11.9444444,26.5432099 10.9711934,24.1720165 10.9711934,21.3938272 C10.9711934,18.6156379 11.9444444,16.2444444 13.9263374,14.2802469 C15.890535,12.3160494 18.2617284,11.3251029 21.0399177,11.3251029 C23.8004115,11.3251029 26.1716049,12.3160494 28.1534979,14.2802469 C30.1176955,16.2444444 31.108642,18.6156379 31.108642,21.3938272 L31.108642,29.5868313 C31.108642,30.1 30.9316872,30.5423868 30.5600823,30.9139918 C30.1884774,31.2855967 29.7460905,31.4625514 29.2329218,31.4625514 C28.7020576,31.4625514 28.2596708,31.2855967 27.8880658,30.9139918 C27.5164609,30.5423868 27.3395062,30.1 27.3395062,29.5868313 L27.3395062,29.5868313 Z M21.0399177,15.0765432 C20.155144,15.0765432 19.3234568,15.2358025 18.5625514,15.5720165 C17.8016461,15.9082305 17.1292181,16.3683128 16.562963,16.9345679 C15.9967078,17.500823 15.554321,18.173251 15.218107,18.9341564 C14.881893,19.6950617 14.7226337,20.5090535 14.7226337,21.3761317 C14.7226337,22.2432099 14.881893,23.0572016 15.218107,23.818107 C15.554321,24.5790123 15.9967078,25.2514403 16.562963,25.8176955 C17.1292181,26.3839506 17.7839506,26.8440329 18.5625514,27.1802469 C19.3234568,27.5164609 20.155144,27.6757202 21.0399177,27.6757202 C21.9246914,27.6757202 22.7386831,27.4987654 23.4995885,27.1802469 C24.2604938,26.8440329 24.9329218,26.3839506 25.499177,25.8176955 C26.0654321,25.2337449 26.5255144,24.5790123 26.8440329,23.818107 C27.1802469,23.0572016 27.3395062,22.2432099 27.3395062,21.3761317 C27.3395062,20.5090535 27.1802469,19.6950617 26.8440329,18.9341564 C26.5078189,18.173251 26.0654321,17.500823 25.499177,16.9345679 C24.9329218,16.3683128 24.2604938,15.9082305 23.4995885,15.5720165 C22.7209877,15.2534979 21.9069959,15.0765432 21.0399177,15.0765432 Z" id="XMLID_1_" fill="#FFFFFF"/>
                </g>
            </g>
        </g>
    </g>
</svg>