<svg xmlns="http://www.w3.org/2000/svg" xmlns:xlink="http://www.w3.org/1999/xlink" width="130" height="55"><defs><path id="a" d="M64.5 54.398H129V0H0v54.398z"/></defs><g fill="none" fill-rule="evenodd"><mask id="b" fill="#fff"><use xlink:href="#a"/></mask><path fill="#464D53" d="M51.424 35.11c-2.026 0-2.197-2.73-1.985-5.07.436-4.812 3.183-10.404 6.155-10.404 1.755 0 2.973 2.08 3.542 3.251-1.062 4.285-4.844 12.224-7.712 12.224zM32.671 23.148c.696-7.672 4.637-17.165 7.25-17.165 1.351 0 1.234 1.879 1.08 3.57-.483 5.331-4.57 12.256-8.553 17.458-.04-1.04.105-2.563.223-3.863zm94.084-6.762c-1.892 0-2.626.65-2.955 1.3-1.059 3.24-1.947 6.12-3.299 9.111-1.522 3.381-4.124 8.47-6.15 8.47-1.621 0-1.975-2.236-1.799-4.187.113-2.73 1.13-6.761 1.806-9.752l.597-2.731c.301-1.821-.703-2.601-2.594-2.601-1.485 0-2.517.65-2.711 1.3-.793 2.927-1.29 5.355-2.717 8.576-.784 1.77-1.894 4.046-4.289 6.249.447-2.738-.563-5.988-1.686-8.85-.595-1.69-1.191-3.038-2.25-4.94-.75-1.348-1.81-2.647-3.656-2.647-1.215 0-2.588.465-3.147 1.17-1.088 3.251-4.195 9.014-6.77 12.562.027-2.34-1.297-5.854-2.59-8.27-.504-.944-1.594-2.799-2.203-3.683-.863-1.253-1.795-1.91-3.145-1.91-1.486 0-2.345.39-2.985 1.17-1.11 3.332-3.754 8.954-5.307 11.75-1.523 2.742-3.016 5.587-4.21 5.587-1.08 0-1.117-1.55-1-2.85.225-2.47 2.53-9.89 3.112-11.84.45-1.82-1.321-2.464-2.977-2.074l-1.933.52c-1.244-1.17-3.533-2.73-6.415-2.73-5.785 0-11.502 6.892-12.164 14.743-1.809 2.595-4.357 5.48-6.85 5.153-1.204-.159-2.298-1.053-2.697-2.606 5.428-6.242 11.242-15.86 11.88-22.882.462-5.1-1.475-8.193-5.4-8.193-7.292 0-12.608 10.273-13.551 20.677-.343 3.77-.302 6.934.384 9.794-3.15 3.295-7.465 5.94-11.787 5.94-4.448 0-8.87-4.275-8.332-12.743C7.52 16.248 13.377 4.81 18.8 4.81c1.843 0 2.624 1.87 2.39 3.525-.233 1.645-.8 2.66-1.608 3.727-.27 1.31.706 2.991 2.618 2.991 2.704 0 4.289-3.007 4.599-6.642C27.182 3.91 24.73 0 19.427 0 8.332 0 .697 13.821.053 24.968-.519 34.873 3.5 43.173 13.954 43.173c5.132 0 10.262-3.089 14.832-7.077 1.555 2.21 3.302 3.956 6.803 3.956 2.997 0 6.097-2.392 8.233-4.964 1.012 3.067 3.282 4.964 6.06 4.964 3.397 0 6.223-2.304 8.462-5.988.675 2.6 1.915 5.067 4.863 5.067 3.377 0 5.23-2.551 7.485-5.913 1.787-2.665 3.128-5.886 5.373-10.337l.837 1.203c1.765 3.121 3.19 6.035 2.91 8.246-.297 2.34-1.979 3.17-3.54 3.17-1.562 0-2.205-.92-3.348-1.69-1.2.167-1.92 1.56-2.07 2.731-.313 2.47 1.652 3.771 5.164 3.771 4.727 0 7.367-2.226 9.634-5.078 2.476-3.115 6.381-9.095 7.983-12.813 1.867 3.38 3.74 7.358 3.427 9.829-.248 1.95-1.503 3.51-3.528 3.51-1.486 0-2.744-1.325-3.759-1.846-.675 0-1.752 1.457-1.934 2.887-.297 2.341 1.682 3.772 5.869 3.772 5.162 0 9.894-3.566 13.385-7.814.31 4.031 1.83 7.32 5.984 7.32 2.835 0 5.596-2.034 8.146-6.39 0 0-1.212 5.24-1.57 6.747-.988 4.14-1.99 7.975-2.24 10.713-.215 2.34 1.27 3.251 2.89 3.251 1.486 0 2.79-1.04 2.996-1.82.735-8.1 2.235-15.992 3.788-23.971.45-2.31 1.847-9.233 1.847-9.233.288-1.69-.29-2.99-2.181-2.99z" mask="url(#b)"/></g></svg>