<svg xmlns="http://www.w3.org/2000/svg" viewBox="0 0 126 43.71"><defs><style>.cls-1{fill:none;}.cls-2{fill:#e1251b;}.cls-3,.cls-4{fill:#76777a;}.cls-4{font-size:2px;font-family:ArialMT, Arial;}</style></defs><title>imageware_logo_with_minimum_clearance_for_iwsinc.com-positive</title><g id="Layer_2" data-name="Layer 2"><g id="Layer_1-2" data-name="Layer 1"><rect class="cls-1" width="126" height="43.71"/><path class="cls-2" d="M69.22,16.43h3V21a6.89,6.89,0,0,1-2.66.43c-1.5,0-3.85-.76-3.85-4.21a3.87,3.87,0,0,1,4.18-4.12,7.13,7.13,0,0,1,2.11.32L71.88,15A4.37,4.37,0,0,0,70,14.54a2.47,2.47,0,0,0-2.39,2.75c0,1.5.7,2.68,2.14,2.68a1.56,1.56,0,0,0,.66-.12v-2H69.22Z"/><rect class="cls-2" x="41.53" y="13.22" width="1.89" height="8.06"/><polygon class="cls-2" points="52.12 13.22 50.7 18.45 49.38 13.22 46.53 13.22 46.53 21.28 48.26 21.28 48.26 14.91 48.28 14.91 50.03 21.28 51.27 21.28 53.09 14.91 53.11 14.91 53.11 21.28 54.84 21.28 54.84 13.22 52.12 13.22"/><polygon class="cls-2" points="109.75 13.22 114.4 13.22 114.4 14.63 111.57 14.63 111.57 16.43 113.4 16.43 113.4 17.84 111.57 17.84 111.57 19.87 114.54 19.87 114.54 21.28 109.75 21.28 109.75 13.22"/><polygon class="cls-2" points="75.17 13.22 79.83 13.22 79.83 14.63 77 14.63 77 16.43 78.83 16.43 78.83 17.84 77 17.84 77 19.87 79.97 19.87 79.97 21.28 75.17 21.28 75.17 13.22"/><path class="cls-2" d="M101.35,13.22h3c1.33,0,2.46.59,2.46,2.08a1.9,1.9,0,0,1-1.61,2v0c.59.07.82.39,1.12,1.35l.83,2.63h-2l-.62-2.16c-.32-1.09-.57-1.09-1.26-1.09v3.25h-1.9Zm1.83,3.19h.59c.72,0,1.11-.36,1.11-.94,0-.33-.11-.88-1.12-.88h-.58Z"/><path class="cls-3" d="M44,26.37a1.83,1.83,0,0,0-.92-.25.8.8,0,0,0-.84.81c0,.34.14.56.91,1s1.11.95,1.11,1.57A1.44,1.44,0,0,1,42.69,31a2.62,2.62,0,0,1-1.12-.23v-.7a2.22,2.22,0,0,0,1,.35.87.87,0,0,0,.95-.85c0-.42-.1-.65-.83-1.09-1-.59-1.18-.92-1.18-1.61A1.34,1.34,0,0,1,43,25.54a2.75,2.75,0,0,1,1,.18Z"/><polygon class="cls-3" points="53.75 28.71 52.14 25.59 52.91 25.59 54.1 27.97 55.29 25.59 56.04 25.59 54.43 28.71 54.43 30.97 53.75 30.97 53.75 28.71"/><path class="cls-3" d="M66.66,26.37a1.89,1.89,0,0,0-.92-.25.79.79,0,0,0-.84.81c0,.34.14.56.91,1s1.11.95,1.11,1.57A1.44,1.44,0,0,1,65.36,31a2.7,2.7,0,0,1-1.13-.23v-.7a2.3,2.3,0,0,0,1,.35.88.88,0,0,0,.95-.85c0-.42-.11-.65-.83-1.09-1-.59-1.19-.92-1.19-1.61a1.35,1.35,0,0,1,1.5-1.35,2.75,2.75,0,0,1,1,.18Z"/><polygon class="cls-3" points="76.41 26.18 75.18 26.18 75.18 25.59 78.32 25.59 78.32 26.18 77.09 26.18 77.09 30.97 76.41 30.97 76.41 26.18"/><polygon class="cls-3" points="87.12 25.59 89.62 25.59 89.62 26.18 87.8 26.18 87.8 27.89 89.54 27.89 89.54 28.47 87.8 28.47 87.8 30.38 89.72 30.38 89.72 30.97 87.12 30.97 87.12 25.59"/><polygon class="cls-3" points="98.16 25.59 99.21 25.59 100.55 29.87 100.57 29.87 101.95 25.59 102.96 25.59 102.96 30.97 102.32 30.97 102.32 26.33 102.3 26.33 100.78 30.97 100.28 30.97 98.82 26.33 98.81 26.33 98.81 30.97 98.16 30.97 98.16 25.59"/><path class="cls-3" d="M114.14,26.37a1.89,1.89,0,0,0-.92-.25.79.79,0,0,0-.84.81c0,.34.14.56.91,1s1.11.95,1.11,1.57A1.44,1.44,0,0,1,112.84,31a2.7,2.7,0,0,1-1.13-.23v-.7a2.3,2.3,0,0,0,1,.35.87.87,0,0,0,1-.85c0-.42-.11-.65-.83-1.09-1-.59-1.19-.92-1.19-1.61a1.35,1.35,0,0,1,1.5-1.35,2.75,2.75,0,0,1,1,.18Z"/><polygon class="cls-2" points="89.74 13.22 88.67 19.13 87.59 13.22 85.51 13.22 84.44 19.13 83.36 13.22 81.7 13.22 83.28 21.28 85.59 21.28 86.55 16.38 87.51 21.28 89.82 21.28 91.4 13.22 89.74 13.22"/><polygon class="cls-2" points="61.57 13.22 59.49 13.22 56.81 21.28 58.63 21.28 59.56 18.03 60.5 14.77 60.52 14.77 61.29 17.84 60.4 17.84 60.01 19.2 61.66 19.2 62.22 21.28 64.16 21.28 61.57 13.22"/><polygon class="cls-2" points="96.78 13.22 94.7 13.22 92.03 21.28 93.85 21.28 94.75 18.12 94.75 18.12 95.71 14.77 95.73 14.77 96.56 18.12 95.53 18.12 95.13 19.48 96.93 19.48 97.43 21.28 99.37 21.28 96.78 13.22"/><path class="cls-3" d="M12.23,29.76V13.18a1,1,0,0,1,.95-.95H26.29l-.44-.77H13.18a1.72,1.72,0,0,0-1.72,1.72V31.09Z"/><path class="cls-3" d="M32.45,14.39V31.5a1,1,0,0,1-1,1H22l-.44.77H31.5a1.71,1.71,0,0,0,1.71-1.72V13.18a.41.41,0,0,0,0-.11Z"/><path class="cls-2" d="M26.69,8.89l2.77,4.81a.46.46,0,0,1-.4.69h-5a.94.94,0,0,0-.8.46L11.53,35.21a.46.46,0,0,0,.4.69h5.13a.93.93,0,0,0,.8-.46L29.94,14.52l3.25-5.63a.47.47,0,0,0-.4-.69h-5.7a.46.46,0,0,0-.4.69"/><text class="cls-4" transform="translate(115.86 14.68)">®</text></g></g></svg>