<svg width="165" height="42" viewBox="0 0 165 42" fill="none" xmlns="http://www.w3.org/2000/svg">
<g clip-path="url(#clip0)">
<path fill-rule="evenodd" clip-rule="evenodd" d="M115.849 24.6318L123.278 31.9107H116.956L111.273 26.3441V31.9107H106.369V8.55811H111.273V22.8413L116.237 17.9806H122.615L115.849 24.6318ZM86.3516 15.0754C87.9604 15.0754 89.2625 13.8015 89.2625 12.2245C89.2625 10.6503 87.9604 9.37354 86.3516 9.37354C84.7443 9.37354 83.4407 10.6503 83.4407 12.2245C83.4407 13.8015 84.7443 15.0754 86.3516 15.0754ZM88.7349 31.9121H83.8286V17.9819H88.7349V31.9121ZM75.3735 31.9121L66.9444 22.4056V31.9121H61.7344V9.50879H66.9444V18.6594L74.7936 9.50879H81.1139L71.9074 20.1254L82.5541 31.9106H75.3735V31.9121ZM100.049 28.3809C98.1901 28.3809 96.6627 26.8594 96.6627 24.9308C96.6627 23.0306 98.1901 21.5105 100.049 21.5119C101.517 21.5119 102.432 22.1624 102.432 22.1624L104.095 18.8802C104.095 18.8802 102.489 17.5764 99.3265 17.5764C95.1934 17.5764 91.4526 20.8885 91.4526 24.9891C91.4526 29.0613 95.2239 32.3221 99.3265 32.3221C102.489 32.3221 104.095 31.0682 104.095 31.0682L102.432 27.7305C102.432 27.7305 101.517 28.3809 100.049 28.3809ZM133.897 21.8091L135.505 18.6593C135.505 18.6593 133.48 17.5747 130.736 17.5747C126.994 17.5747 124.525 19.203 124.525 22.0525C124.525 24.1434 125.965 25.1212 127.414 25.8542C127.937 26.1209 128.454 26.3093 128.914 26.4767C129.865 26.8233 130.571 27.0802 130.571 27.7558C130.571 28.6796 129.739 28.7607 129.049 28.7607C127.468 28.7607 125.526 27.1594 125.526 27.1594L123.528 30.4431C123.528 30.4431 125.582 32.3219 129.017 32.3219C131.928 32.3219 135.756 31.6657 135.756 27.5665C135.756 24.7184 133.316 23.6837 131.43 23.1129C131.3 23.0722 131.172 23.0335 131.048 22.9957C130.009 22.6795 129.212 22.437 129.212 21.7821C129.212 21.1302 129.654 20.9395 130.736 20.9395C132.233 20.9395 133.897 21.8091 133.897 21.8091ZM139.055 12.7954H143.958V17.982H146.952V21.6485H143.958V26.0751C143.958 27.376 144.291 28.0023 145.067 28.0023C145.71 28.0023 146.288 27.5668 146.288 27.5668L147.51 31.451C147.51 31.451 145.926 32.3221 143.905 32.3221C139.998 32.3221 139.055 29.4655 139.055 26.9989V21.6485H137.006V17.982H139.055V12.7954ZM155.436 17.5747C157.349 17.5747 158.93 18.1981 160.097 19.3112V17.9818H165.001V31.9119H160.149V30.3335H160.097C159.042 31.4778 157.378 32.3204 155.436 32.3204C151.28 32.3204 148.369 29.0311 148.369 24.959C148.369 20.8868 151.28 17.5747 155.436 17.5747ZM156.91 28.2198C158.821 28.2198 160.206 26.8605 160.206 24.9604C160.206 23.0303 158.734 21.6739 156.91 21.6739C155.051 21.6739 153.579 23.0303 153.579 24.9604C153.579 26.8605 154.907 28.2198 156.91 28.2198Z" fill="#2A363D"/>
<path d="M0 21.0002H21C21 15.2969 19.105 10.076 15.2132 6.21309C11.3184 2.35159 5.94038 0.000244141 0 0.000244141V21.0002Z" fill="#EF3F61"/>
<path d="M21 0H42C42 5.7033 40.105 10.9242 36.2132 14.7872C32.3184 18.6487 26.9404 21 21 21V0Z" fill="#5C94FE"/>
<path d="M21 21H0C0 26.7033 1.89495 31.9242 5.78683 35.7872C9.68157 39.6487 15.0596 42 21 42V21Z" fill="#FEC149"/>
<path d="M42 21H21C21 26.7033 22.895 31.9242 26.7868 35.7872C30.6816 39.6487 36.0596 42 42 42V21Z" fill="#4ED687"/>
</g>
<defs>
<clipPath id="clip0">
<rect width="165" height="42" fill="white"/>
</clipPath>
</defs>
</svg>