<?xml version="1.0" encoding="UTF-8"?>
<svg xmlns="http://www.w3.org/2000/svg" viewBox="0 0 1516.038 299"><path d="M572.661 86.032h26.909c13.234 0 23.821-10.366 23.821-23.6A23.723 23.723 0 00599.57 38.61h-26.909v47.422zm52.495 81.389l-25.586-43.894h-26.909v43.894h-43.45V1.996h69.698c33.526 0 60.876 27.35 60.876 60.877 0 17.645-7.72 33.526-19.63 44.554l35.069 59.994h-50.068zM714.968 1.996h102.784v35.952h-59.333v26.909h52.495v36.615h-52.495v30.438h59.333v35.511H714.968V1.996zM1024.858 1.974l-76.977 165.454H928.03L850.832 1.974h43.671l43.454 94.073 43.67-94.073h43.231zM1060.363 1.996h102.784v35.952h-59.332v26.909h52.495v36.615h-52.495v30.438h59.332v35.511h-102.784V1.996zM1270.115 109.191h33.746l-16.758-36.393-16.988 36.393zm-70.36 58.23l77.199-165.425h19.634l77.859 165.425h-43.451l-10.148-21.616h-67.712l-9.927 21.616h-43.454M1413.041 1.996h43.452v121.753h59.545v43.672h-102.997V1.996zM569.311 291.308c13.019 0 20.713-7.546 20.713-19.53 0-10.059-6.957-19.529-20.713-19.529h-31.66v39.059h31.66zm-.592-46.752c12.724 0 19.384-7.989 19.384-18.197 0-10.061-6.66-18.346-19.384-18.346h-31.068v36.543h31.068zm-39.504-44.236h40.543c16.57 0 27.222 9.617 27.222 25.151 0 12.426-8.436 20.861-17.313 22.636 10.501 1.628 19.233 12.576 19.233 24.263 0 16.422-10.652 26.63-28.261 26.63h-41.424v-98.68zM629.38 200.288h8.436v98.679h-8.436v-98.679zM715.402 207.758c-23.168 0-37.756 17.59-37.756 41.903 0 24.026 14.588 41.902 37.756 41.902 22.882 0 37.755-17.876 37.755-41.902 0-24.313-14.873-41.903-37.755-41.903zm0-7.438c27.89 0 46.336 21.453 46.336 49.341 0 27.887-18.446 49.339-46.336 49.339-28.031 0-46.337-21.452-46.337-49.339 0-27.888 18.306-49.341 46.337-49.341M794.59 277.691c6.147 7.15 16.158 13.872 29.748 13.872 19.589 0 25.171-10.869 25.171-19.021 0-13.442-12.732-17.161-26.176-20.737-15.013-4.147-31.03-8.437-31.03-26.027 0-15.59 14.01-25.458 31.316-25.458 14.302 0 24.885 5.006 32.322 13.444l-5.435 6.007c-6.865-8.295-16.59-12.013-27.312-12.013-12.732 0-22.31 7.293-22.31 17.59 0 11.298 11.867 14.587 24.877 18.02 15.446 4.433 32.329 9.296 32.329 28.602 0 12.299-8.156 27.03-33.899 27.03-15.731 0-27.604-6.293-34.895-15.159l5.294-6.15zM886.409 249.661c0-29.319 21.313-49.341 48.053-49.341 15.446 0 26.887 6.722 35.042 16.876l-6.866 4.434c-6.012-8.295-16.449-13.872-28.176-13.872-22.164 0-39.472 17.018-39.472 41.903 0 24.598 17.308 41.902 39.472 41.902 11.727 0 22.164-5.577 28.176-13.872l6.866 4.291C961.062 292.421 949.908 299 934.462 299c-26.74 0-48.053-20.022-48.053-49.339zM998.642 200.288h8.43v98.679h-8.43v-98.679zM1041.959 200.288h62.584v7.694h-54.149v36.542h53.111v7.693h-53.111v39.058h54.149v7.692h-62.584v-98.679zM1143.295 213.75v85.217h-8.43v-98.679h8.575l61.847 84.033v-84.033h8.429v98.679h-8.284l-62.137-85.217zM1243.75 249.661c0-29.319 21.304-49.341 48.054-49.341 15.446 0 26.887 6.722 35.033 16.876l-6.865 4.434c-6.003-8.295-16.445-13.872-28.168-13.872-22.174 0-39.473 17.018-39.473 41.903 0 24.598 17.299 41.902 39.473 41.902 11.723 0 22.165-5.577 28.168-13.872l6.865 4.291c-8.436 10.439-19.587 17.018-35.033 17.018-26.75 0-48.054-20.022-48.054-49.339zM1355.977 200.32h62.581v7.693h-54.146v36.543h53.113v7.693h-53.113v39.059h54.146V299h-62.581v-98.68zM1452.522 277.696c6.147 7.148 16.152 13.869 29.742 13.869 19.584 0 25.166-10.867 25.166-19.018 0-13.439-12.728-17.158-26.173-20.732-15.008-4.147-31.023-8.436-31.023-26.023 0-15.586 14.009-25.452 31.313-25.452 14.299 0 24.876 5.005 32.311 13.441l-5.429 6.006c-6.863-8.294-16.587-12.011-27.309-12.011-12.728 0-22.306 7.292-22.306 17.586 0 11.296 11.866 14.585 24.876 18.017 15.442 4.433 32.319 9.294 32.319 28.597 0 12.296-8.152 27.024-33.89 27.024-15.733 0-27.599-6.292-34.889-15.156l5.292-6.148z"/><linearGradient id="a" x1="-2.823" y1="1.559" x2="2.521" y2="-1.22" gradientTransform="matrix(110.083 0 0 141.158 310.813 78.93)" gradientUnits="userSpaceOnUse"><stop offset="2.609%" stop-color="#10f2ff"/><stop offset="98.696%" stop-color="#3185ff"/></linearGradient><g fill="url(#a)"><path d="M242.426 236.641H98.042c2.198 6.377 3.334 13.141 3.181 20.086-.134 6.139-1.282 12.035-3.22 17.57h144.42c-2.185-6.297-3.372-13.046-3.217-20.09.135-6.136 1.28-12.029 3.22-17.566zM389.34 78.93l-78.527 120.611c12.726 3.172 23.762 10.536 31.56 20.547L420.896 99.48c-12.722-3.172-23.758-10.539-31.556-20.55zM89.084 220.052l78.494-120.566a57.276 57.276 0 01-27.718-16.05 57.78 57.78 0 01-3.857-4.47L57.504 199.532a57.264 57.264 0 0127.72 16.05 59.061 59.061 0 013.86 4.47zM235.974 62.377h144.417c-2.186-6.294-3.37-13.042-3.217-20.086.137-6.136 1.282-12.032 3.223-17.567H236.01c2.2 6.378 3.337 13.141 3.184 20.087-.135 6.136-1.28 12.032-3.22 17.566z"/><circle cx="297.505" cy="255.645" r="43.355"/><circle cx="43.355" cy="255.645" r="43.355"/><circle cx="239.2" cy="149.5" r="44.85"/><circle cx="435.045" cy="43.355" r="43.355"/><circle cx="180.895" cy="43.355" r="43.355"/></g></svg>