<svg xmlns="http://www.w3.org/2000/svg" width="143.801" height="25.744"><g data-name="Group 150"><path d="M45.371 19.208a4.12 4.12 0 00.357 1.795 3.246 3.246 0 001 1.218 4.233 4.233 0 001.467.692 7.069 7.069 0 001.8.218 5.755 5.755 0 001.786-.244 3.606 3.606 0 001.2-.628 2.267 2.267 0 00.663-.885 2.654 2.654 0 00.2-1.012 2.194 2.194 0 00-.472-1.55 2.689 2.689 0 00-1.033-.7 21.381 21.381 0 00-2.258-.679q-1.288-.32-3.176-.833a6.756 6.756 0 01-1.952-.807 4.657 4.657 0 01-1.238-1.115 3.922 3.922 0 01-.651-1.307 5.281 5.281 0 01-.191-1.41 4.778 4.778 0 01.574-2.4 5.121 5.121 0 011.519-1.679 6.654 6.654 0 012.143-.987 9.358 9.358 0 012.424-.32 9.5 9.5 0 012.691.371 6.622 6.622 0 012.218 1.111 5.3 5.3 0 012.079 4.357h-3.189a3.094 3.094 0 00-1.2-2.5 4.746 4.746 0 00-2.73-.731 5.966 5.966 0 00-1.148.115 3.621 3.621 0 00-1.072.387 2.347 2.347 0 00-.8.731 1.984 1.984 0 00-.319 1.154 1.969 1.969 0 00.6 1.525 3.877 3.877 0 001.57.833q.1.026.8.218t1.569.423q.868.231 1.7.449t1.187.32a5.308 5.308 0 011.556.769 4.908 4.908 0 011.109 1.115 4.6 4.6 0 01.663 1.346 4.921 4.921 0 01.217 1.435 5.2 5.2 0 01-.625 2.627 5.326 5.326 0 01-1.646 1.781 7.138 7.138 0 01-2.322 1.012 11.038 11.038 0 01-2.654.321 10.871 10.871 0 01-2.934-.385 6.857 6.857 0 01-2.4-1.179 5.767 5.767 0 01-1.633-2.037 6.814 6.814 0 01-.638-2.935zm22.452-1.692a4.717 4.717 0 00-.293-1.333 3.558 3.558 0 00-.663-1.115 3.28 3.28 0 00-1.021-.769 2.992 2.992 0 00-1.34-.295 3.48 3.48 0 00-1.391.269 3.172 3.172 0 00-1.071.743 3.67 3.67 0 00-.715 1.115 3.887 3.887 0 00-.293 1.384zm-6.787 1.922a5.121 5.121 0 00.217 1.487 3.667 3.667 0 00.651 1.256 3.137 3.137 0 001.1.858 3.6 3.6 0 001.578.318 3.482 3.482 0 002.054-.552 3.257 3.257 0 001.162-1.648h2.756a5.495 5.495 0 01-2.144 3.344 5.816 5.816 0 01-1.773.872 7.1 7.1 0 01-2.054.295 6.954 6.954 0 01-2.756-.513 5.7 5.7 0 01-2.029-1.435 6.092 6.092 0 01-1.25-2.2 9 9 0 01-.421-2.82 8.008 8.008 0 01.447-2.679 6.865 6.865 0 011.276-2.23 5.971 5.971 0 014.657-2.089 5.884 5.884 0 012.794.654 6.134 6.134 0 012.054 1.73 7.018 7.018 0 011.186 2.471 7.62 7.62 0 01.191 2.884zm11.276-7.381h2.756v1.948l.051.051a4.889 4.889 0 011.735-1.73 4.609 4.609 0 012.373-.628 4.916 4.916 0 013.419 1.128 4.327 4.327 0 011.25 3.383v9.1h-2.909v-8.331a3.609 3.609 0 00-.663-2.268 2.4 2.4 0 00-1.914-.7 3.145 3.145 0 00-1.327.269 2.879 2.879 0 00-1 .743 3.49 3.49 0 00-.638 1.115 3.988 3.988 0 00-.23 1.358v7.818h-2.903zm25.793 13.252h-2.756v-1.795h-.051a3.458 3.458 0 01-1.709 1.653 5.766 5.766 0 01-2.373.5 6.273 6.273 0 01-2.718-.551 5.423 5.423 0 01-1.926-1.5 6.432 6.432 0 01-1.148-2.243 9.767 9.767 0 01-.382-2.781 8.92 8.92 0 01.484-3.1 6.219 6.219 0 011.288-2.153 4.983 4.983 0 011.837-1.243 5.809 5.809 0 012.1-.4 6.974 6.974 0 011.25.116 5.5 5.5 0 011.225.371 4.8 4.8 0 011.084.654 3.61 3.61 0 01.83.936h.051V7.006H98.1zM87.95 18.824a6.5 6.5 0 00.217 1.666 4.579 4.579 0 00.663 1.461 3.364 3.364 0 001.136 1.025 3.3 3.3 0 001.633.385 3.25 3.25 0 001.671-.41 3.475 3.475 0 001.148-1.076 4.88 4.88 0 00.663-1.5 6.745 6.745 0 00.217-1.7 5.37 5.37 0 00-.982-3.435 3.229 3.229 0 00-2.666-1.23 3.281 3.281 0 00-1.722.422 3.553 3.553 0 00-1.148 1.1 4.6 4.6 0 00-.638 1.538 8.075 8.075 0 00-.191 1.753zm12.117-11.817h2.909v18.3h-2.909zm15.843 15.35a1.561 1.561 0 00.14.769.593.593 0 00.549.231h.306a1.911 1.911 0 00.408-.051v2.025c-.1.034-.234.073-.395.115s-.328.081-.5.116-.34.059-.51.077-.315.026-.434.026a2.794 2.794 0 01-1.48-.359 1.786 1.786 0 01-.766-1.256 5.14 5.14 0 01-2.131 1.23 8.352 8.352 0 01-2.436.384 5.95 5.95 0 01-1.71-.244 4.472 4.472 0 01-1.442-.718 3.434 3.434 0 01-1-1.2 3.725 3.725 0 01-.369-1.7 3.95 3.95 0 01.446-2 3.314 3.314 0 011.174-1.2 5.282 5.282 0 011.633-.628q.9-.192 1.824-.295a14.968 14.968 0 011.505-.218 7.017 7.017 0 001.264-.218 1.931 1.931 0 00.867-.474 1.308 1.308 0 00.319-.961 1.505 1.505 0 00-.268-.923 1.81 1.81 0 00-.663-.551 2.855 2.855 0 00-.88-.256 7.01 7.01 0 00-.919-.064 3.642 3.642 0 00-2.016.513 2 2 0 00-.893 1.589h-2.901a4.413 4.413 0 01.612-2.127 4.239 4.239 0 011.365-1.359 5.567 5.567 0 011.875-.718 11.116 11.116 0 012.144-.205 8.987 8.987 0 011.914.205 5.41 5.41 0 011.7.667 3.681 3.681 0 011.212 1.192 3.282 3.282 0 01.46 1.781zm-2.909-3.692a3.513 3.513 0 01-1.633.525q-.97.09-1.94.269a6.277 6.277 0 00-.893.218 2.677 2.677 0 00-.765.385 1.687 1.687 0 00-.523.641 2.194 2.194 0 00-.191.961 1.229 1.229 0 00.281.82 2.03 2.03 0 00.676.525 3.1 3.1 0 00.867.269 5.3 5.3 0 00.855.077 4.7 4.7 0 001.046-.128 3.471 3.471 0 001.059-.436 2.784 2.784 0 00.83-.782 1.985 1.985 0 00.332-1.166zm5.408-6.613h2.756V14l.051.051a4.884 4.884 0 011.735-1.73 4.609 4.609 0 012.373-.628 4.917 4.917 0 013.419 1.128 4.327 4.327 0 011.25 3.383v9.1h-2.911v-8.326a3.617 3.617 0 00-.663-2.268 2.4 2.4 0 00-1.914-.7 3.145 3.145 0 00-1.327.269 2.868 2.868 0 00-1 .743 3.489 3.489 0 00-.638 1.115 3.988 3.988 0 00-.23 1.358v7.818h-2.909zm22.425 5.459a4.718 4.718 0 00-.293-1.333 3.558 3.558 0 00-.663-1.115 3.28 3.28 0 00-1.021-.769 2.992 2.992 0 00-1.34-.295 3.48 3.48 0 00-1.391.269 3.181 3.181 0 00-1.072.743 3.68 3.68 0 00-.714 1.115 3.886 3.886 0 00-.293 1.384zm-6.787 1.922a5.121 5.121 0 00.217 1.487 3.667 3.667 0 00.651 1.256 3.137 3.137 0 001.1.858 3.6 3.6 0 001.582.321 3.48 3.48 0 002.053-.552 3.254 3.254 0 001.161-1.653h2.756a5.495 5.495 0 01-2.144 3.344 5.812 5.812 0 01-1.774.872 7.09 7.09 0 01-2.053.295 6.954 6.954 0 01-2.756-.513 5.7 5.7 0 01-2.029-1.435 6.093 6.093 0 01-1.25-2.2 9 9 0 01-.421-2.82 8.008 8.008 0 01.447-2.679 6.865 6.865 0 011.276-2.23 5.971 5.971 0 014.657-2.089 5.884 5.884 0 012.794.654 6.134 6.134 0 012.054 1.73 7.017 7.017 0 011.184 2.478 7.62 7.62 0 01.191 2.884z" class="cls-1" data-name="Group 149"/><path d="M17.256 24.286H1.917a.667.667 0 01-.639-.639V10.226c2.877 3.542 5.755 4.94 9.586 5.112q6.506.291 19.172-7.03-10.42 9.587-19.172 9.587a35.2 35.2 0 006.392 6.391zM0 24.286a1.369 1.369 0 001.278 1.281h29.4a1.367 1.367 0 001.281-1.278V7.667a1.373 1.373 0 00-1.281-1.278H5.149a28.072 28.072 0 002.54 6.428c-3.082-1.628-5.771-4.091-5.771-6.426 0-2.431.63-4.614 5.113-6.391C2.149.636-.073 4.073 0 6.391z" class="cls-1"/></g></svg>